<svg xmlns="http://www.w3.org/2000/svg" xmlns:xlink="http://www.w3.org/1999/xlink" width="566.3" height="566.3" viewBox="0 0 530.9 530.9"><defs><linearGradient id="a"><stop style="stop-color:#16a085;stop-opacity:1" offset="0"/><stop style="stop-color:#0c8874;stop-opacity:1" offset="1"/></linearGradient><linearGradient xlink:href="#a" id="b" x1="318.2" y1="350.8" x2="316.3" y2="624.9" gradientUnits="userSpaceOnUse"/></defs><path style="opacity:1;fill:url(#b);fill-opacity:1;stroke:none;stroke-opacity:1" d="M318 178A230 230 0 0 0 88 408a230 230 0 0 0 96 187v-36s3-26 24-48c9-10 25-31 27-70V332l-6-11h6l10-28-5-12s10-1 15-4c6-2 4-14 20-25l28-18c9-7 14-26 15-29v-1 1c1 3 6 22 16 29 10 8 12 8 28 18 15 11 14 23 19 25 5 3 15 4 15 4l-5 12 11 28h6l-6 11v109c1 39 17 60 26 70 21 22 24 48 24 48v36a230 230 0 0 0 96-187 230 230 0 0 0-230-230Zm0 153a64 64 0 1 0 0 128 64 64 0 0 0 0-128zm0 12h1c2 0 4 2 4 5v42h27c2 0 3 1 3 3v4c0 2-1 3-3 3h-33c-2 0-4-1-4-3v-49c0-3 2-5 5-5zm3 198c-34-1-68 18-68 55v33a230 230 0 0 0 65 9 230 230 0 0 0 66-9v-33c-1-37-32-54-63-55z" transform="translate(-53 -143)"/></svg>